PathFileType	4	(X/Y/Z)	Patient4_TMGait_0pt7_02_right_47.trc.trc
DataRate	CameraRate	NumFrames	NumMarkers	Units	OrigDataRate	OrigDataStartFrame	OrigNumFrames
90.322580645161	90.322580645161	4	33	mm	90.322580645161	1	       141
Frame#	Time	Sacral			L.Shoulder			Chest			R.Shoulder			Neck			R.ASIS			L.ASIS			R.Thigh.Superior			R.Thigh.Lateral			R.Thigh.Inferior			R.Patella			L.Thigh.Superior			L.Thigh.Lateral			L.Thigh.Inferior			L.Patella			L.Shank.Superior			L.Shank.Lateral			L.Shank.Inferior			R.Shank.Superior			R.Shank.Lateral			R.Shank.Inferior			R.Heel			R.Midfoot.Superior			R.Midfoot.Lateral			R.Toe			L.Heel			L.Midfoot.Lateral			L.Midfoot.Superior			L.Toe			L.Elbow			L.Wrist			R.Elbow			R.Wrist			
		X1	Y1	Z1	X2	Y2	Z2	X3	Y3	Z3	X4	Y4	Z4	X5	Y5	Z5	X6	Y6	Z6	X7	Y7	Z7	X8	Y8	Z8	X9	Y9	Z9	X10	Y10	Z10	X11	Y11	Z11	X12	Y12	Z12	X13	Y13	Z13	X14	Y14	Z14	X15	Y15	Z15	X16	Y16	Z16	X17	Y17	Z17	X18	Y18	Z18	X19	Y19	Z19	X20	Y20	Z20	X21	Y21	Z21	X22	Y22	Z22	X23	Y23	Z23	X24	Y24	Z24	X25	Y25	Z25	X26	Y26	Z26	X27	Y27	Z27	X28	Y28	Z28	X29	Y29	Z29	X30	Y30	Z30	X31	Y31	Z31	X32	Y32	Z32	X33	Y33	Z33	

1	53.240000000000	733.955248241610	1013.341812365066	419.509668090775	937.374824059362	1430.426205025345	241.188215915706	1032.002081314262	1356.830363483378	406.540492134824	947.970008727729	1439.482226735208	576.366764306873	938.252611904407	1494.134015448439	395.738444198696	951.361467723215	942.553178094969	543.296556019512	955.109175208813	961.774354274738	272.976929125337	1039.822117074989	778.921164090125	521.038630382616	1000.949141974451	659.081061545388	597.063552424052	1094.736919362397	621.595502897044	520.798415907326	1116.413976721909	507.852133099130	545.595814683439	1000.751492189614	751.558603778151	303.911429843233	912.645887998960	637.762010714114	243.157326380106	991.443449222913	558.522949529166	312.288638707119	989.594743381724	489.373005241539	323.260902942142	962.499999966274	418.145965034139	312.900709191437	875.410925953944	304.881993298510	255.440538963433	918.666930013101	193.203224869678	331.121211263981	1038.837925689222	432.992740633239	551.820559413069	914.405665350081	395.982723151116	607.617376623059	901.349414809982	286.105636663557	561.132501779646	703.422883827841	234.426781636031	525.174904206075	864.891270193086	161.366298590549	575.379183564528	753.574152192452	169.968545787874	601.177995824767	915.795135186135	41.788223644370	601.780609064561	786.645963897049	38.151491098413	365.861485239358	865.269857798048	35.062842197393	289.243417398356	946.205175013871	95.823250259337	321.094629761746	1076.786265130179	43.915351336120	300.437186633196	926.698863997416	1086.782880645103	105.111608289989	1084.887645066174	878.626143473851	131.420813970071	945.074076617977	1090.256593528231	691.314681448453	1152.988096946807	951.581101515350	618.141843325548	
2	53.251071428571	732.938831443766	1013.156828977542	418.131920670763	937.888248709003	1430.507787349412	240.821787281637	1031.005177594291	1356.898446103065	407.028548790971	945.501564901353	1439.539640801793	576.163647039274	937.425155155221	1494.191136923151	395.263085468140	949.790754627243	943.150599891553	544.680884530779	954.896302196342	961.707090166594	273.307846496829	1040.002066231148	781.508790920105	521.750251730110	1002.622493638016	661.222029201076	597.863122011763	1096.919449009766	624.944041324304	521.789264677227	1120.712569997646	512.371460874772	546.943638519678	998.177977944109	750.577478881155	304.571965522392	909.056376939168	637.682951889713	242.767675605631	986.265297496231	557.519935914934	312.171562754894	983.489385649160	488.536874426831	323.118422270031	956.238695001447	417.629982704907	312.660061410708	868.741758321541	304.721823416114	255.115138004917	911.116549860025	192.915604299248	331.027132690172	1045.721401617138	435.572494015936	553.054354787108	923.011875215522	393.709231523202	608.539167770915	914.491839781573	283.523214969270	562.075023096105	719.098148363979	223.549456461136	526.216658218207	883.378579382251	157.806288746465	576.022164756462	772.043349308877	161.315522583633	601.943998217616	939.461607133584	40.886499918777	602.059717528868	778.472442466019	38.183282557692	365.825635187718	857.121049160145	35.048162329642	289.216786685976	938.096561210786	95.764359763428	321.049682481273	1068.659154949874	43.707342971447	300.434299012293	934.483365330149	1088.535513197406	102.366880546175	1102.793632114848	890.560074885964	131.689529972660	937.734988663557	1090.027032623684	691.382334325662	1130.616602636067	932.532374250133	625.727479754565	
3	53.262142857143	731.938347907785	1012.997229760235	416.789749666035	938.411101222099	1430.597740306080	240.490886533781	1030.041087258190	1356.967059509521	407.531712717053	943.088350590849	1439.584857905891	575.973443697807	936.626582305138	1494.250793685738	394.824729393555	948.238640102196	943.730025212616	545.988618369457	954.695350302720	961.643586182817	273.646302722325	1040.135347316992	784.025799807094	522.469197998735	1004.191266177192	663.288512578178	598.642785689003	1099.000162370410	628.205664045669	522.784542923779	1124.840873603477	516.798662366852	548.265826359334	995.625781632987	749.603737773926	305.230717306165	905.481489232701	637.613385072715	242.395375938027	981.107943171224	556.535851305177	312.063220502348	977.406308821802	487.724283043486	322.988837790867	950.019163743474	417.128696226908	312.426657612753	862.129740409395	304.569104048428	254.796114425683	903.652155184174	192.640866023485	330.935519534720	1052.464486529610	438.086642712230	554.257404412325	931.539135827040	391.383750901331	609.492168941152	927.521722229095	280.923870493722	563.041045225957	734.679823776918	212.720362292740	527.350679963257	901.738336108368	154.246403279709	576.701329055752	790.425496681499	152.703129326467	602.775908677631	962.961271240976	39.989460550329	602.347495972377	770.408963945294	38.216287821974	365.787985390397	849.079270283408	35.033336796659	289.190657630642	930.094874497264	95.707086354316	321.005253101419	1060.639266276384	43.506964551522	300.430612993864	942.112575503817	1090.301355173082	99.713818679317	1120.348100796146	902.492020191546	132.012815796877	930.473728290361	1089.800561305769	691.452772325036	1108.155257681631	914.032397836095	633.468957488908	
4	53.273214285714	730.974205146750	1012.877844238136	415.525625266999	938.965065891024	1430.694961295438	240.245229337364	1029.147813694549	1357.021769173296	408.080769491209	940.789419194465	1439.593834926411	575.825673539139	935.892933418550	1494.302846579567	394.475305930530	946.724381595662	944.258942787969	547.169811482895	954.519643491213	961.583261329538	273.999200846901	1040.154177135456	786.369906334994	523.209108846118	1005.515698629994	665.176732995353	599.395684387947	1100.838951445718	631.253776615662	523.796098409840	1128.605945076966	521.033679813271	549.536518561607	993.077210392551	748.627177103660	305.882887853864	901.874048423686	637.562997627795	242.052439491927	975.918362624740	555.578054426596	311.960246048919	971.289211475069	486.950598073445	322.868951735037	943.795163905261	416.656118206942	312.197876317328	855.535875931497	304.433363841763	254.483952604976	896.260961252920	192.392766423319	330.844374668224	1058.944647035020	440.465919936414	555.412462134055	939.996095806961	388.910746995940	610.533543906896	940.478344896672	278.275369295061	564.079307423819	750.352123752944	201.861528302231	528.704673793066	920.083123425167	150.707218618577	577.485977721700	808.921049804064	144.124172325737	603.779490899568	986.414886870607	39.220930542604	602.697710180734	762.461919310421	38.253716986364	365.746593732118	841.147898802815	35.018795867599	289.165638643815	922.204386417580	95.653429837334	320.960027362105	1052.729740268972	43.320678215016	300.425656506543	949.494784769509	1092.109669061240	97.231786171110	1137.294720250480	914.616595261737	132.474614948440	923.220121712184	1089.619213456411	691.561731635384	1085.305807473797	896.647199709931	641.540525533711	
